# xmcd CD database file
#
# Track frame offsets:
#	150
#	22629
#	47512
#	61622
#	85008
#	108394
#	127480
#	152379
#	172543
#	190150
#	219046
#	239795
#	264659
#	282593
#
# Disc length: 4274 seconds
#
# Revision: 2
# Processed by: cddbd v1.4b41PL1 Copyright (c) Steve Scherf et al.
# Submitted via: Feurio! 1.50.2ß - http://www.feurio.com
#
DISCID=b010b00e
DTITLE=Mark Knopfler - Sailing To Philadelphia
DYEAR=1900
DGENRE=
TTITLE0=Track 01:What It Is
TTITLE1=Track 02:Sailing To Philadelphia
TTITLE2=Track 03:Who's Your Baby Now
TTITLE3=Track 04:Baloney Again
TTITLE4=Track 05:The Last Laugh
TTITLE5=Track 06:Do America
TTITLE6=Track 07:El Macho
TTITLE7=Track 08:Prarie Wedding
TTITLE8=Track 09:Speedway At Nazareth
TTITLE9=Track 10:Wanderlust
TTITLE10=Track 11:Junkie Doll
TTITLE11=Track 12:Silvertown Blues
TTITLE12=Track 13:Sands Of Nevada
TTITLE13=Track 14:Money For Nothing
EXTD=
EXTT0=
EXTT1=
EXTT2=
EXTT3=
EXTT4=
EXTT5=
EXTT6=
EXTT7=
EXTT8=
EXTT9=
EXTT10=
EXTT11=
EXTT12=
EXTT13=
PLAYORDER=
